<mxfile host="app.diagrams.net" modified="2022-04-22T09:02:56.570Z" agent="5.0 (Windows NT 6.1; Win64; x64) AppleWebKit/537.36 (KHTML, like Gecko) Chrome/100.0.4896.88 Safari/537.36" etag="yTpb65-ARTTVOPvDd23Y" version="17.4.6" type="github">
  <diagram id="xSobV2dEYY3qbQ84wqaA" name="第 1 页">
    <mxGraphModel dx="758" dy="763" grid="1" gridSize="10" guides="1" tooltips="1" connect="1" arrows="1" fold="1" page="1" pageScale="1" pageWidth="827" pageHeight="1169" math="0" shadow="0">
      <root>
        <mxCell id="0" />
        <mxCell id="1" parent="0" />
        <mxCell id="qI81W56f_Yj8E-dFEdOs-1" value="" style="rounded=0;whiteSpace=wrap;html=1;" vertex="1" parent="1">
          <mxGeometry x="304" y="470" width="280" height="210" as="geometry" />
        </mxCell>
        <mxCell id="qI81W56f_Yj8E-dFEdOs-2" value="Browser" style="rounded=0;whiteSpace=wrap;html=1;" vertex="1" parent="1">
          <mxGeometry x="74" y="550" width="120" height="60" as="geometry" />
        </mxCell>
        <mxCell id="qI81W56f_Yj8E-dFEdOs-3" value="MiongoDB" style="shape=cylinder3;whiteSpace=wrap;html=1;boundedLbl=1;backgroundOutline=1;size=15;" vertex="1" parent="1">
          <mxGeometry x="684" y="535" width="70" height="85" as="geometry" />
        </mxCell>
        <mxCell id="qI81W56f_Yj8E-dFEdOs-4" value="Client" style="text;html=1;align=center;verticalAlign=middle;resizable=0;points=[];autosize=1;strokeColor=none;fillColor=none;" vertex="1" parent="1">
          <mxGeometry x="109" y="610" width="50" height="20" as="geometry" />
        </mxCell>
        <mxCell id="qI81W56f_Yj8E-dFEdOs-5" value="DjangoServer" style="text;html=1;align=center;verticalAlign=middle;resizable=0;points=[];autosize=1;strokeColor=none;fillColor=none;" vertex="1" parent="1">
          <mxGeometry x="394" y="680" width="90" height="20" as="geometry" />
        </mxCell>
        <mxCell id="qI81W56f_Yj8E-dFEdOs-6" value="Pymongo" style="rounded=0;whiteSpace=wrap;html=1;" vertex="1" parent="1">
          <mxGeometry x="474" y="555" width="90" height="50" as="geometry" />
        </mxCell>
        <mxCell id="qI81W56f_Yj8E-dFEdOs-9" value="" style="endArrow=classic;html=1;rounded=0;" edge="1" parent="1">
          <mxGeometry width="50" height="50" relative="1" as="geometry">
            <mxPoint x="564" y="570" as="sourcePoint" />
            <mxPoint x="684" y="568" as="targetPoint" />
          </mxGeometry>
        </mxCell>
        <mxCell id="qI81W56f_Yj8E-dFEdOs-10" value="" style="endArrow=classic;html=1;rounded=0;exitX=0;exitY=0;exitDx=0;exitDy=56.25;exitPerimeter=0;entryX=1;entryY=0.75;entryDx=0;entryDy=0;" edge="1" parent="1" source="qI81W56f_Yj8E-dFEdOs-3" target="qI81W56f_Yj8E-dFEdOs-6">
          <mxGeometry width="50" height="50" relative="1" as="geometry">
            <mxPoint x="674" y="590" as="sourcePoint" />
            <mxPoint x="474" y="485" as="targetPoint" />
          </mxGeometry>
        </mxCell>
        <mxCell id="qI81W56f_Yj8E-dFEdOs-12" value="Access" style="text;html=1;align=center;verticalAlign=middle;resizable=0;points=[];autosize=1;strokeColor=none;fillColor=none;" vertex="1" parent="1">
          <mxGeometry x="599" y="550" width="50" height="20" as="geometry" />
        </mxCell>
        <mxCell id="qI81W56f_Yj8E-dFEdOs-13" value="View" style="rounded=0;whiteSpace=wrap;html=1;" vertex="1" parent="1">
          <mxGeometry x="324" y="490" width="80" height="40" as="geometry" />
        </mxCell>
        <mxCell id="qI81W56f_Yj8E-dFEdOs-15" value="" style="endArrow=classic;html=1;rounded=0;entryX=0;entryY=0.25;entryDx=0;entryDy=0;" edge="1" parent="1" target="qI81W56f_Yj8E-dFEdOs-6">
          <mxGeometry width="50" height="50" relative="1" as="geometry">
            <mxPoint x="404" y="510" as="sourcePoint" />
            <mxPoint x="414" y="500" as="targetPoint" />
          </mxGeometry>
        </mxCell>
        <mxCell id="qI81W56f_Yj8E-dFEdOs-16" value="Call" style="edgeLabel;html=1;align=center;verticalAlign=middle;resizable=0;points=[];" vertex="1" connectable="0" parent="qI81W56f_Yj8E-dFEdOs-15">
          <mxGeometry x="-0.313" y="4" relative="1" as="geometry">
            <mxPoint x="14" as="offset" />
          </mxGeometry>
        </mxCell>
        <mxCell id="qI81W56f_Yj8E-dFEdOs-17" value="Template&lt;br&gt;(News_List.html)" style="rounded=0;whiteSpace=wrap;html=1;" vertex="1" parent="1">
          <mxGeometry x="318" y="555" width="100" height="40" as="geometry" />
        </mxCell>
        <mxCell id="qI81W56f_Yj8E-dFEdOs-18" value="Template&lt;br&gt;(News_List.html)" style="rounded=0;whiteSpace=wrap;html=1;" vertex="1" parent="1">
          <mxGeometry x="318" y="555" width="100" height="40" as="geometry" />
        </mxCell>
        <mxCell id="qI81W56f_Yj8E-dFEdOs-19" value="Template&lt;br&gt;(Detail_Page.html)" style="rounded=0;whiteSpace=wrap;html=1;" vertex="1" parent="1">
          <mxGeometry x="318" y="620" width="100" height="40" as="geometry" />
        </mxCell>
        <mxCell id="qI81W56f_Yj8E-dFEdOs-20" value="" style="endArrow=classic;html=1;rounded=0;exitX=0.25;exitY=1;exitDx=0;exitDy=0;entryX=0.25;entryY=0;entryDx=0;entryDy=0;" edge="1" parent="1" source="qI81W56f_Yj8E-dFEdOs-13" target="qI81W56f_Yj8E-dFEdOs-18">
          <mxGeometry width="50" height="50" relative="1" as="geometry">
            <mxPoint x="364" y="550" as="sourcePoint" />
            <mxPoint x="414" y="500" as="targetPoint" />
          </mxGeometry>
        </mxCell>
        <mxCell id="qI81W56f_Yj8E-dFEdOs-21" value="" style="endArrow=classic;html=1;rounded=0;exitX=0.665;exitY=1.045;exitDx=0;exitDy=0;exitPerimeter=0;entryX=0.6;entryY=0.035;entryDx=0;entryDy=0;entryPerimeter=0;" edge="1" parent="1" source="qI81W56f_Yj8E-dFEdOs-13" target="qI81W56f_Yj8E-dFEdOs-19">
          <mxGeometry width="50" height="50" relative="1" as="geometry">
            <mxPoint x="364" y="550" as="sourcePoint" />
            <mxPoint x="414" y="500" as="targetPoint" />
          </mxGeometry>
        </mxCell>
        <mxCell id="qI81W56f_Yj8E-dFEdOs-23" value="" style="endArrow=classic;html=1;rounded=0;exitX=0.25;exitY=1;exitDx=0;exitDy=0;entryX=0.25;entryY=0;entryDx=0;entryDy=0;" edge="1" parent="1" source="qI81W56f_Yj8E-dFEdOs-18" target="qI81W56f_Yj8E-dFEdOs-19">
          <mxGeometry width="50" height="50" relative="1" as="geometry">
            <mxPoint x="364" y="550" as="sourcePoint" />
            <mxPoint x="414" y="500" as="targetPoint" />
          </mxGeometry>
        </mxCell>
        <mxCell id="qI81W56f_Yj8E-dFEdOs-26" value="" style="endArrow=classic;html=1;rounded=0;exitX=1;exitY=0.25;exitDx=0;exitDy=0;entryX=0;entryY=0.5;entryDx=0;entryDy=0;" edge="1" parent="1" source="qI81W56f_Yj8E-dFEdOs-18" target="qI81W56f_Yj8E-dFEdOs-6">
          <mxGeometry width="50" height="50" relative="1" as="geometry">
            <mxPoint x="364" y="550" as="sourcePoint" />
            <mxPoint x="414" y="500" as="targetPoint" />
          </mxGeometry>
        </mxCell>
        <mxCell id="qI81W56f_Yj8E-dFEdOs-27" value="" style="endArrow=classic;html=1;rounded=0;exitX=0;exitY=0.75;exitDx=0;exitDy=0;entryX=1;entryY=0.5;entryDx=0;entryDy=0;" edge="1" parent="1" source="qI81W56f_Yj8E-dFEdOs-6" target="qI81W56f_Yj8E-dFEdOs-18">
          <mxGeometry width="50" height="50" relative="1" as="geometry">
            <mxPoint x="364" y="550" as="sourcePoint" />
            <mxPoint x="424" y="580" as="targetPoint" />
          </mxGeometry>
        </mxCell>
        <mxCell id="qI81W56f_Yj8E-dFEdOs-28" value="" style="endArrow=classic;html=1;rounded=0;exitX=1;exitY=0.25;exitDx=0;exitDy=0;entryX=0;entryY=1;entryDx=0;entryDy=0;" edge="1" parent="1" source="qI81W56f_Yj8E-dFEdOs-19" target="qI81W56f_Yj8E-dFEdOs-6">
          <mxGeometry width="50" height="50" relative="1" as="geometry">
            <mxPoint x="364" y="550" as="sourcePoint" />
            <mxPoint x="414" y="500" as="targetPoint" />
          </mxGeometry>
        </mxCell>
        <mxCell id="qI81W56f_Yj8E-dFEdOs-29" value="" style="endArrow=classic;html=1;rounded=0;entryX=0.25;entryY=1;entryDx=0;entryDy=0;" edge="1" parent="1" target="qI81W56f_Yj8E-dFEdOs-6">
          <mxGeometry width="50" height="50" relative="1" as="geometry">
            <mxPoint x="418" y="655" as="sourcePoint" />
            <mxPoint x="468" y="605" as="targetPoint" />
          </mxGeometry>
        </mxCell>
        <mxCell id="qI81W56f_Yj8E-dFEdOs-32" value="" style="endArrow=classic;html=1;rounded=0;exitX=1;exitY=0.25;exitDx=0;exitDy=0;entryX=0;entryY=0.5;entryDx=0;entryDy=0;" edge="1" parent="1" source="qI81W56f_Yj8E-dFEdOs-2" target="qI81W56f_Yj8E-dFEdOs-13">
          <mxGeometry width="50" height="50" relative="1" as="geometry">
            <mxPoint x="364" y="550" as="sourcePoint" />
            <mxPoint x="414" y="500" as="targetPoint" />
          </mxGeometry>
        </mxCell>
        <mxCell id="qI81W56f_Yj8E-dFEdOs-33" value="Request" style="text;html=1;align=center;verticalAlign=middle;resizable=0;points=[];autosize=1;strokeColor=none;fillColor=none;" vertex="1" parent="1">
          <mxGeometry x="204" y="520" width="60" height="20" as="geometry" />
        </mxCell>
        <mxCell id="qI81W56f_Yj8E-dFEdOs-34" value="" style="endArrow=classic;html=1;rounded=0;exitX=0;exitY=0.75;exitDx=0;exitDy=0;entryX=1;entryY=0.5;entryDx=0;entryDy=0;" edge="1" parent="1" source="qI81W56f_Yj8E-dFEdOs-18" target="qI81W56f_Yj8E-dFEdOs-2">
          <mxGeometry width="50" height="50" relative="1" as="geometry">
            <mxPoint x="364" y="550" as="sourcePoint" />
            <mxPoint x="414" y="500" as="targetPoint" />
          </mxGeometry>
        </mxCell>
        <mxCell id="qI81W56f_Yj8E-dFEdOs-36" value="" style="endArrow=classic;html=1;rounded=0;exitX=0;exitY=0.5;exitDx=0;exitDy=0;entryX=1;entryY=0.75;entryDx=0;entryDy=0;" edge="1" parent="1" source="qI81W56f_Yj8E-dFEdOs-19" target="qI81W56f_Yj8E-dFEdOs-2">
          <mxGeometry width="50" height="50" relative="1" as="geometry">
            <mxPoint x="364" y="550" as="sourcePoint" />
            <mxPoint x="414" y="500" as="targetPoint" />
          </mxGeometry>
        </mxCell>
        <mxCell id="qI81W56f_Yj8E-dFEdOs-37" value="Response" style="text;html=1;align=center;verticalAlign=middle;resizable=0;points=[];autosize=1;strokeColor=none;fillColor=none;" vertex="1" parent="1">
          <mxGeometry x="204" y="620" width="70" height="20" as="geometry" />
        </mxCell>
      </root>
    </mxGraphModel>
  </diagram>
</mxfile>
